<svg width="230" height="24" fill="none" xmlns="http://www.w3.org/2000/svg"><path d="M13 0L8.982 7.903 0 9.163l6.5 6.154L4.963 24 13 19.903 21.037 24 19.5 15.317 26 9.171l-8.982-1.268L13 0zm51 0l-4.018 7.903L51 9.163l6.5 6.154L55.963 24 64 19.903 72.037 24 70.5 15.317 77 9.171l-8.982-1.268L64 0zm51 0l-4.018 7.903L102 9.163l6.5 6.154L106.963 24 115 19.903 123.037 24l-1.537-8.683 6.5-6.146-8.982-1.268L115 0zm51 0l-4.018 7.903L153 9.163l6.5 6.154L157.963 24 166 19.903 174.037 24l-1.537-8.683 6.5-6.146-8.982-1.268L166 0zm51 0l-4.018 7.903L204 9.163l6.5 6.154L208.963 24 217 19.903 225.037 24l-1.537-8.683 6.5-6.146-8.982-1.268L217 0z" fill="#D1A954"/></svg>