<svg width="26" height="26" fill="none" xmlns="http://www.w3.org/2000/svg"><path d="M17.875 0h-9.75A8.126 8.126 0 000 8.125v9.75A8.126 8.126 0 008.125 26h9.75A8.126 8.126 0 0026 17.875v-9.75A8.126 8.126 0 0017.875 0zm5.688 17.875a5.694 5.694 0 01-5.688 5.688h-9.75a5.694 5.694 0 01-5.688-5.688v-9.75a5.694 5.694 0 015.688-5.688h9.75a5.694 5.694 0 015.688 5.688v9.75z" fill="#D1A954"/><path d="M13 6.5a6.5 6.5 0 100 13 6.5 6.5 0 000-13zm0 10.563A4.068 4.068 0 018.937 13 4.067 4.067 0 0113 8.937 4.067 4.067 0 0117.063 13 4.068 4.068 0 0113 17.063zm6.985-10.184a.866.866 0 100-1.732.866.866 0 000 1.732z" fill="#D1A954"/></svg>