<svg width="15" height="26" fill="none" xmlns="http://www.w3.org/2000/svg"><path d="M14.435.005L10.837 0C6.795 0 4.183 2.511 4.183 6.399v2.95H.566c-.313 0-.566.237-.566.53v4.275c0 .293.253.53.566.53h3.617V25.47c0 .293.253.53.566.53h4.72c.312 0 .565-.238.565-.53V14.684h4.23c.313 0 .566-.237.566-.53l.001-4.275a.52.52 0 00-.165-.375.586.586 0 00-.4-.155h-4.232V6.848c0-1.202.306-1.812 1.977-1.812l2.424-.001c.312 0 .565-.238.565-.53V.535c0-.292-.253-.529-.565-.53z" fill="#fff" fill-opacity=".6"/></svg>